<svg width="150" height="80" viewBox="0 0 150 80" xmlns="http://www.w3.org/2000/svg"><style>path{fill:#ffffff}@media(prefers-color-scheme:dark){path{fill:#ffffff}}@media(prefers-color-scheme:light){path{fill:#000000}}</style><g><path d="M82.94,39.01h15.2c3.76,0,7.1.79,10,2.38,2.9,1.58,5.15,3.77,6.76,6.57,1.6,2.8,2.4,5.97,2.4,9.53s-.8,6.73-2.4,9.53c-1.6,2.8-3.85,4.99-6.76,6.57-2.9,1.58-6.24,2.38-10,2.38h-15.2v-36.95Z"/><path d="M47.59,74.14c-3.11-1.67-5.52-3.99-7.23-6.94-1.71-2.96-2.56-6.28-2.56-9.98s.85-7.02,2.56-9.98c1.71-2.96,4.12-5.27,7.23-6.94,3.11-1.67,6.68-2.51,10.69-2.51s7.57.84,10.66,2.51c3.1,1.67,5.5,3.99,7.2,6.94,1.71,2.96,2.56,6.28,2.56,9.98s-.85,7.02-2.56,9.98c-1.71,2.96-4.11,5.27-7.2,6.94-3.1,1.67-6.65,2.51-10.66,2.51s-7.57-.84-10.69-2.51Z"/><path d="M137.26,71.59l-8.63,4.31h-11.28l14.49-36.89h10.7l14.55,36.89h-11.59M143.25,70.25"/></g></svg>
